<?xml version="1.0" encoding="utf-8"?>
<!-- Generator: Adobe Illustrator 27.6.1, SVG Export Plug-In . SVG Version: 6.00 Build 0)  -->
<svg version="1.1" id="Layer_1" xmlns="http://www.w3.org/2000/svg" xmlns:xlink="http://www.w3.org/1999/xlink" x="0px" y="0px"
	 viewBox="0 0 1000 1000" style="enable-background:new 0 0 1000 1000;" xml:space="preserve">
<style type="text/css">
	.st0{fill:#FFFFFF;}
</style>
<path fill='#108A00' d="M931.22,55.13H68.78C30.79,55.13,0,85.92,0,123.9v997.6c0,37.98,30.79,68.78,68.78,68.78h862.45
	c37.98,0,68.78-30.79,68.78-68.78V123.9C1000,85.92,969.21,55.13,931.22,55.13z"/>
<path class="st0" d="M545.34,601.87h-90.68c-11.76,0-21.3-9.54-21.3-21.3V419.43c0-11.76,9.54-21.3,21.3-21.3h90.68
	c11.76,0,21.3,9.54,21.3,21.3v161.15C566.64,592.34,557.1,601.87,545.34,601.87z"/>
<path class="st0" d="M193.15,601.87h-90.68c-11.76,0-21.3-9.54-21.3-21.3V419.43c0-11.76,9.54-21.3,21.3-21.3h90.68
	c11.76,0,21.3,9.54,21.3,21.3v161.15C214.45,592.34,204.91,601.87,193.15,601.87z"/>
<path class="st0" d="M369.24,601.87h-90.68c-11.76,0-21.3-9.54-21.3-21.3V419.43c0-11.76,9.54-21.3,21.3-21.3h90.68
	c11.76,0,21.3,9.54,21.3,21.3v161.15C390.54,592.34,381.01,601.87,369.24,601.87z"/>
<path class="st0" d="M897.53,601.87h-90.68c-11.76,0-21.3-9.54-21.3-21.3V419.43c0-11.76,9.54-21.3,21.3-21.3h90.68
	c11.76,0,21.3,9.54,21.3,21.3v161.15C918.83,592.34,909.29,601.87,897.53,601.87z"/>
<path class="st0" d="M721.44,601.87h-90.68c-11.76,0-21.3-9.54-21.3-21.3V419.43c0-11.76,9.54-21.3,21.3-21.3h90.68
	c11.76,0,21.3,9.54,21.3,21.3v161.15C742.73,592.34,733.2,601.87,721.44,601.87z"/>
<path class="st0" d="M545.34,847.6h-90.68c-11.76,0-21.3-9.54-21.3-21.3V665.15c0-11.76,9.54-21.3,21.3-21.3h90.68
	c11.76,0,21.3,9.54,21.3,21.3V826.3C566.64,838.06,557.1,847.6,545.34,847.6z"/>
<path class="st0" d="M193.15,847.6h-90.68c-11.76,0-21.3-9.54-21.3-21.3V665.15c0-11.76,9.54-21.3,21.3-21.3h90.68
	c11.76,0,21.3,9.54,21.3,21.3V826.3C214.45,838.06,204.91,847.6,193.15,847.6z"/>
<path class="st0" d="M369.24,847.6h-90.68c-11.76,0-21.3-9.54-21.3-21.3V665.15c0-11.76,9.54-21.3,21.3-21.3h90.68
	c11.76,0,21.3,9.54,21.3,21.3V826.3C390.54,838.06,381.01,847.6,369.24,847.6z"/>
<path class="st0" d="M897.53,847.6h-90.68c-11.76,0-21.3-9.54-21.3-21.3V665.15c0-11.76,9.54-21.3,21.3-21.3h90.68
	c11.76,0,21.3,9.54,21.3,21.3V826.3C918.83,838.06,909.29,847.6,897.53,847.6z"/>
<path class="st0" d="M721.44,847.6h-90.68c-11.76,0-21.3-9.54-21.3-21.3V665.15c0-11.76,9.54-21.3,21.3-21.3h90.68
	c11.76,0,21.3,9.54,21.3,21.3V826.3C742.73,838.06,733.2,847.6,721.44,847.6z"/>
<path class="st0" d="M545.34,1093.32h-90.68c-11.76,0-21.3-9.54-21.3-21.3V910.87c0-11.76,9.54-21.3,21.3-21.3h90.68
	c11.76,0,21.3,9.54,21.3,21.3v161.15C566.64,1083.78,557.1,1093.32,545.34,1093.32z"/>
<path class="st0" d="M193.15,1093.32h-90.68c-11.76,0-21.3-9.54-21.3-21.3V910.87c0-11.76,9.54-21.3,21.3-21.3h90.68
	c11.76,0,21.3,9.54,21.3,21.3v161.15C214.45,1083.78,204.91,1093.32,193.15,1093.32z"/>
<path class="st0" d="M369.24,1093.32h-90.68c-11.76,0-21.3-9.54-21.3-21.3V910.87c0-11.76,9.54-21.3,21.3-21.3h90.68
	c11.76,0,21.3,9.54,21.3,21.3v161.15C390.54,1083.78,381.01,1093.32,369.24,1093.32z"/>
<path class="st0" d="M897.53,1093.32h-90.68c-11.76,0-21.3-9.54-21.3-21.3V910.87c0-11.76,9.54-21.3,21.3-21.3h90.68
	c11.76,0,21.3,9.54,21.3,21.3v161.15C918.83,1083.78,909.29,1093.32,897.53,1093.32z"/>
<path class="st0" d="M721.44,1093.32h-90.68c-11.76,0-21.3-9.54-21.3-21.3V910.87c0-11.76,9.54-21.3,21.3-21.3h90.68
	c11.76,0,21.3,9.54,21.3,21.3v161.15C742.73,1083.78,733.2,1093.32,721.44,1093.32z"/>
<path class="st0" d="M885.82,285.68H114.18c-18.23,0-33.01-14.78-33.01-33.01V186.8c0-18.23,14.78-33.01,33.01-33.01h771.64
	c18.23,0,33.01,14.78,33.01,33.01v65.87C918.83,270.9,904.05,285.68,885.82,285.68z"/>
<path fill='#108A00' d="M863.61,266.88H136.39c-18.23,0-33.01-14.78-33.01-33.01V205.6c0-18.23,14.78-33.01,33.01-33.01h727.21
	c18.23,0,33.01,14.78,33.01,33.01v28.27C896.62,252.1,881.84,266.88,863.61,266.88z"/>
</svg>
